<svg width="79" height="79" viewBox="0 0 79 79" fill="none" xmlns="http://www.w3.org/2000/svg">
    <mask id="path-1-inside-1_0_1" fill="white">
        <rect width="79" height="79" rx="24" />
    </mask>
    <rect width="79" height="79" rx="24" stroke="white" stroke-width="79"
        mask="url(#path-1-inside-1_0_1)" />
    <path
        d="M65.25 39.2812C65.1667 41.1979 64.875 43.125 64.375 45.0625C63.875 46.9792 63.125 48.7396 62.125 50.3438C61.125 51.9479 59.8229 53.2396 58.2188 54.2188C56.6354 55.1771 54.7188 55.6562 52.4688 55.6562C51.0312 55.6562 49.7708 55.4062 48.6875 54.9062C47.625 54.3854 46.75 53.6458 46.0625 52.6875C45.3958 51.7292 44.9271 50.5729 44.6562 49.2188C44.4062 47.8646 44.3646 46.3542 44.5312 44.6875L46.125 27.375H50.7188L49.125 44.6875C49 46.2083 49.0312 47.4479 49.2188 48.4062C49.4271 49.3646 49.7396 50.1042 50.1562 50.625C50.5729 51.125 51.0417 51.4688 51.5625 51.6562C52.1042 51.8438 52.625 51.9375 53.125 51.9375C54.375 51.9375 55.4896 51.6146 56.4688 50.9688C57.4479 50.3021 58.2708 49.3958 58.9375 48.25C59.625 47.0833 60.1562 45.7396 60.5312 44.2188C60.9062 42.6771 61.1354 41.0312 61.2188 39.2812C61.3646 36.1771 61.2188 33.3229 60.7812 30.7188C60.3646 28.1146 59.6458 25.8021 58.625 23.7812C57.625 21.7604 56.3125 20.0521 54.6875 18.6562C53.0625 17.2604 51.125 16.1979 48.875 15.4688C46.625 14.7396 44.0521 14.375 41.1562 14.375C38.5312 14.375 36.1042 14.7812 33.875 15.5938C31.6667 16.3854 29.6771 17.5312 27.9062 19.0312C26.1562 20.5312 24.6458 22.3333 23.375 24.4375C22.125 26.5417 21.1354 28.9167 20.4062 31.5625C19.6979 34.1875 19.2812 37.0208 19.1562 40.0625C19.0104 43.1875 19.1771 46.0625 19.6562 48.6875C20.1354 51.2917 20.9062 53.6146 21.9688 55.6562C23.0521 57.7188 24.4167 59.4583 26.0625 60.875C27.7083 62.3125 29.6146 63.3958 31.7812 64.125C33.9479 64.875 36.3646 65.25 39.0312 65.25C40.8646 65.25 42.7188 65.0312 44.5938 64.5938C46.4896 64.1562 48.0729 63.5625 49.3438 62.8125L50.5312 66.375C49.0729 67.3125 47.25 68.0104 45.0625 68.4688C42.8958 68.9271 40.8438 69.1562 38.9062 69.1562C35.7396 69.1562 32.8438 68.7188 30.2188 67.8438C27.6146 66.9896 25.3021 65.7292 23.2812 64.0625C21.2812 62.4167 19.6146 60.4062 18.2812 58.0312C16.9479 55.6771 15.9688 52.9896 15.3438 49.9688C14.7188 46.9479 14.4792 43.6458 14.625 40.0625C14.7708 36.6458 15.2812 33.4271 16.1562 30.4062C17.0521 27.3854 18.2708 24.6458 19.8125 22.1875C21.3542 19.7292 23.1875 17.6146 25.3125 15.8438C27.4583 14.0521 29.8646 12.6771 32.5312 11.7188C35.2188 10.7604 38.1354 10.2812 41.2812 10.2812C44.4896 10.2812 47.3958 10.7188 50 11.5938C52.6042 12.4688 54.8854 13.7292 56.8438 15.375C58.8229 17.0208 60.4583 19.0312 61.75 21.4062C63.0417 23.7812 63.9792 26.4688 64.5625 29.4688C65.1667 32.4688 65.3958 35.7396 65.25 39.2812ZM33.1562 41.9375C33.0104 43.3958 33.0104 44.6979 33.1562 45.8438C33.3021 46.9896 33.5833 47.9583 34 48.75C34.4167 49.5417 34.9583 50.1458 35.625 50.5625C36.3125 50.9583 37.1146 51.1562 38.0312 51.1562C38.6354 51.1562 39.2708 51.0104 39.9375 50.7188C40.6042 50.4062 41.2604 49.9271 41.9062 49.2812C42.5521 48.6354 43.1562 47.7917 43.7188 46.75C44.2812 45.7083 44.75 44.4583 45.125 43L47.1875 45.25C46.7083 46.9583 46.0833 48.4583 45.3125 49.75C44.5625 51.0417 43.7188 52.125 42.7812 53C41.8438 53.875 40.8438 54.5417 39.7812 55C38.7396 55.4375 37.6771 55.6562 36.5938 55.6562C35.0729 55.6562 33.7396 55.3333 32.5938 54.6875C31.4479 54.0208 30.5208 53.0833 29.8125 51.875C29.1042 50.6667 28.6042 49.2292 28.3125 47.5625C28.0417 45.875 28 44 28.1875 41.9375C28.375 39.75 28.7604 37.7292 29.3438 35.875C29.9271 34.0208 30.6458 32.3646 31.5 30.9062C32.375 29.4479 33.3542 28.2083 34.4375 27.1875C35.5417 26.1667 36.7083 25.3958 37.9375 24.875C39.1667 24.3333 40.4271 24.0625 41.7188 24.0625C43.9688 24.0625 45.7396 24.3958 47.0312 25.0625C48.3229 25.7083 49.5521 26.4792 50.7188 27.375L48.0625 30.4688C47.4583 29.8854 46.6667 29.3438 45.6875 28.8438C44.7083 28.3438 43.5521 28.0938 42.2188 28.0938C41.0729 28.0938 40 28.3854 39 28.9688C38 29.5521 37.0938 30.4271 36.2812 31.5938C35.4896 32.7604 34.8229 34.2083 34.2812 35.9375C33.7396 37.6458 33.3646 39.6458 33.1562 41.9375Z"
        fill="black" />
</svg>